<?xml version="1.0" encoding="UTF-8"?>
<svg width="461px" height="154px" viewBox="0 0 461 154" version="1.1" xmlns="http://www.w3.org/2000/svg" xmlns:xlink="http://www.w3.org/1999/xlink">
    <!-- Generator: Sketch 45.1 (43504) - http://www.bohemiancoding.com/sketch -->
    <title>ga</title>
    <desc>Created with Sketch.</desc>
    <defs></defs>
    <g id="Page-1" stroke="none" stroke-width="1" fill="none" fill-rule="evenodd">
        <g id="Group" fill-rule="nonzero" fill="#2E2F30">
            <path d="M192.614661,71.2553328 C195.362661,71.2553328 197.742661,70.8646662 199.757328,70.0726662 C201.773328,69.2859996 203.439994,68.1873329 204.754661,66.7859996 C206.070661,65.3859997 207.002661,63.719333 207.559994,61.7913331 C208.114661,59.8619998 208.305327,57.7859998 208.127994,55.5673332 L196.559994,53.5526666 C196.502661,55.3593332 196.117328,56.8646665 195.398661,58.0619998 C194.685328,59.2606665 193.726661,59.8619998 192.529328,59.8619998 C191.729328,59.8619998 191.086661,59.7006665 190.598661,59.3806665 C190.114661,59.0579998 189.726661,58.6619998 189.439995,58.1953332 C189.153328,57.7286665 188.955995,57.2193332 188.841328,56.6619999 C188.726661,56.1073332 188.669328,55.6246666 188.669328,55.2166666 L188.669328,24.099334 C188.669328,23.279334 188.866661,22.4900007 189.267995,21.7313341 C189.669328,20.9713341 190.606661,20.5940008 192.093328,20.5940008 C193.237328,20.5940008 194.177328,20.9006674 194.919994,21.5100008 C195.661328,22.1246674 196.033328,22.9273341 196.033328,23.9246674 L196.033328,33.3020005 L192.002661,33.3020005 L192.002661,43.7340002 L207.955994,43.7340002 L207.955994,24.5366673 C207.955994,19.5100008 206.609328,15.6980009 203.919994,13.0993343 C201.234661,10.5006677 197.434661,9.19800106 192.526661,9.19800106 C187.033328,9.19800106 183.031995,10.482001 180.518662,13.0553343 C178.005328,15.6246676 176.747995,19.4820008 176.747995,24.6246673 L176.747995,55.2166666 C176.747995,60.0673331 178.106662,63.9499997 180.825328,66.875333 C183.543995,69.7966662 187.471995,71.2553328 192.614661,71.2553328" id="path22" transform="translate(192.470068, 40.226667) scale(-1, 1) rotate(-180.000000) translate(-192.470068, -40.226667) "></path>
            <polygon id="path26" transform="translate(227.018527, 40.226534) scale(-1, 1) rotate(-180.000000) translate(-227.018527, -40.226534) " points="213.036527 9.72386771 213.036527 70.7291995 241.000527 70.7291995 241.000527 59.3331998 224.95786 59.3331998 224.95786 46.3638668 238.98186 46.3638668 238.98186 34.9692004 224.95786 34.9692004 224.95786 21.1198674 241.000527 21.1198674 241.000527 9.72386771"></polygon>
            <polygon id="path30" transform="translate(262.033593, 40.226534) scale(-1, 1) rotate(-180.000000) translate(-262.033593, -40.226534) " points="267.294259 41.8905336 267.294259 70.7291995 278.950259 70.7291995 278.950259 9.72386771 268.826259 9.72386771 261.668926 27.5158673 257.476926 39.087867 257.039593 39.087867 257.039593 9.72386771 245.116927 9.72386771 245.116927 70.7291995 255.547593 70.7291995 262.736926 53.0265333 266.856926 41.8905336"></polygon>
            <polygon id="path34" transform="translate(299.329592, 40.226534) scale(-1, 1) rotate(-180.000000) translate(-299.329592, -40.226534) " points="285.348926 9.72386771 285.348926 70.7291995 313.310258 70.7291995 313.310258 59.3331998 297.271592 59.3331998 297.271592 46.3638668 311.294258 46.3638668 311.294258 34.9692004 297.271592 34.9692004 297.271592 21.1198674 313.310258 21.1198674 313.310258 9.72386771"></polygon>
            <path d="M329.614658,59.3331998 L329.614658,44.9585335 L331.455991,44.9585335 C332.330658,44.9585335 333.147991,45.0625335 333.909324,45.2652002 C334.669324,45.4692002 335.357324,45.8638668 335.970658,46.4505335 C336.583991,47.0332001 337.065324,47.8065334 337.414658,48.7732001 C337.765324,49.7372 337.939991,51.0078667 337.939991,52.5852 C337.939991,54.9211999 337.371991,56.6305332 336.231991,57.7131998 C335.093324,58.7945332 333.617324,59.3331998 331.803991,59.3331998 L329.614658,59.3331998 Z M332.155991,70.7291995 C334.669324,70.7291995 336.975991,70.4238662 339.081324,69.8091995 C341.185324,69.1971996 342.997324,68.1745329 344.518657,66.742533 C346.033324,65.3091997 347.215991,63.4398664 348.065324,61.1331998 C348.914657,58.8225332 349.335991,56.0051999 349.335991,52.6745333 C349.335991,48.5265334 348.781324,45.1358668 347.669324,42.5052002 C346.559991,39.8772003 344.866657,37.7705337 342.587991,36.1932004 L351.351991,9.72386771 L339.169324,9.72386771 L331.981324,33.4758671 L329.614658,33.4758671 L329.614658,9.72386771 L317.694658,9.72386771 L317.694658,70.7291995 L332.155991,70.7291995 Z" id="path38" transform="translate(334.523324, 40.226534) scale(-1, 1) rotate(-180.000000) translate(-334.523324, -40.226534) "></path>
            <path d="M368.268257,42.5928002 L367.044257,32.8634671 L372.56559,32.8634671 L371.424257,42.5928002 L370.112257,54.9527999 L369.58559,54.9527999 L368.268257,42.5928002 Z M374.31759,21.6448007 L365.37759,21.6448007 L363.538924,9.72346771 L350.913591,9.72346771 L362.484257,70.7287995 L377.03359,70.7287995 L388.694923,9.72346771 L376.158923,9.72346771 L374.31759,21.6448007 Z" id="path42" transform="translate(369.804257, 40.226134) scale(-1, 1) rotate(-180.000000) translate(-369.804257, -40.226134) "></path>
            <polygon id="path46" transform="translate(405.743723, 40.226534) scale(-1, 1) rotate(-180.000000) translate(-405.743723, -40.226534) " points="391.763056 9.72386771 391.763056 70.7291995 403.681723 70.7291995 403.681723 21.1198674 419.724389 21.1198674 419.724389 9.72386771"></polygon>
            <path d="M190.335995,115.636932 L189.106661,105.907599 L194.630661,105.907599 L193.491995,115.636932 L192.174661,127.998265 L191.650661,127.998265 L190.335995,115.636932 Z M196.382661,94.6889323 L187.442661,94.6889323 L185.601328,82.7675992 L172.981328,82.7675992 L184.549328,143.775598 L199.101328,143.775598 L210.757327,82.7675992 L198.223994,82.7675992 L196.382661,94.6889323 Z" id="path50" transform="translate(191.869328, 113.271598) scale(-1, 1) rotate(-180.000000) translate(-191.869328, -113.271598) "></path>
            <path d="M244.153727,100.736799 C244.153727,97.9314655 243.905727,95.3901322 243.408393,93.108799 C242.913727,90.832799 242.065727,88.8847991 240.86706,87.2807991 C239.669727,85.6714658 238.049727,84.4314658 236.00306,83.5567992 C233.956394,82.6794659 231.385727,82.2394659 228.289727,82.2394659 C225.48706,82.2394659 223.072394,82.6527992 221.060394,83.4794659 C219.041727,84.3021325 217.404394,85.4341325 216.148394,86.8794658 C214.893727,88.3194657 213.971061,89.996799 213.388394,91.908799 C212.804394,93.8207989 212.513727,95.8567989 212.513727,98.0207988 L224.517727,100.296799 C224.63506,98.0781322 224.968394,96.4114655 225.517727,95.3021322 C226.065727,94.1927989 227.09106,93.6354656 228.596394,93.6354656 C229.460394,93.6354656 230.137727,93.8407989 230.632394,94.2501323 C231.12306,94.6554656 231.497727,95.1821322 231.757727,95.8221322 C232.017727,96.4634655 232.189727,97.2234655 232.27906,98.0981322 C232.36706,98.9741321 232.408394,99.8487988 232.408394,100.723465 C232.408394,101.947465 232.320394,102.968799 232.145727,103.786132 C231.97106,104.603465 231.664394,105.302132 231.22706,105.884799 C230.789727,106.468799 230.18706,106.979465 229.429727,107.416799 C228.669727,107.854132 227.73506,108.307465 226.625727,108.772799 C223.64306,109.999465 221.24706,111.270132 219.435061,112.578132 C217.623061,113.890132 216.237727,115.294132 215.273727,116.780798 C214.307061,118.267465 213.680394,119.843465 213.388394,121.504798 C213.096394,123.166132 212.951061,124.988798 212.951061,126.974131 C212.951061,129.482131 213.241727,131.802131 213.825727,133.931465 C214.408394,136.059465 215.331061,137.882131 216.585727,139.400798 C217.844394,140.916798 219.481727,142.111464 221.497727,142.986131 C223.513727,143.862131 225.95106,144.302131 228.81506,144.302131 C231.85106,144.302131 234.36706,143.818131 236.353727,142.854131 C238.341727,141.890131 239.90306,140.660798 241.044393,139.171464 C242.181727,137.682131 242.98706,136.031465 243.453727,134.220798 C243.91906,132.406131 244.153727,130.655465 244.153727,128.960798 L232.408394,126.419465 C232.408394,127.296798 232.36706,128.114131 232.27906,128.875465 C232.189727,129.632798 232.00306,130.318131 231.716394,130.931465 C231.42706,131.546131 231.036394,132.028798 230.544394,132.379465 C230.05506,132.728798 229.377727,132.906131 228.51106,132.906131 C227.700394,132.906131 227.065727,132.712798 226.604394,132.335465 C226.137727,131.952798 225.77906,131.486131 225.520394,130.931465 C225.257727,130.375465 225.085727,129.750131 225.000394,129.046131 C224.913727,128.348798 224.872394,127.674131 224.872394,127.034131 C224.872394,126.212798 224.929727,125.484798 225.044394,124.840798 C225.161727,124.198132 225.45106,123.583465 225.916394,122.999465 C226.38306,122.416798 227.065727,121.846132 227.965727,121.291465 C228.86706,120.734132 230.132394,120.135465 231.76306,119.494132 C234.55506,118.382132 236.768393,117.212798 238.396393,115.988798 C240.02306,114.760798 241.260393,113.416798 242.104393,111.955465 C242.948393,110.494132 243.500393,108.843465 243.76306,107.004799 C244.02306,105.163465 244.153727,103.072799 244.153727,100.736799" id="path54" transform="translate(228.333727, 113.270798) scale(-1, 1) rotate(-180.000000) translate(-228.333727, -113.270798) "></path>
            <path d="M279.387992,100.736799 C279.387992,97.9314655 279.139992,95.3901322 278.642659,93.108799 C278.147992,90.832799 277.299992,88.8847991 276.101326,87.2807991 C274.903992,85.6714658 273.283993,84.4314658 271.237326,83.5567992 C269.190659,82.6794659 266.622659,82.2394659 263.523993,82.2394659 C260.721326,82.2394659 258.309326,82.6527992 256.29466,83.4794659 C254.27866,84.3021325 252.63866,85.4341325 251.385326,86.8794658 C250.127993,88.3194657 249.205326,89.996799 248.62266,91.908799 C248.03866,93.8207989 247.747993,95.8567989 247.747993,98.0207988 L259.75466,100.296799 C259.869326,98.0781322 260.20266,96.4114655 260.751993,95.3021322 C261.299993,94.1927989 262.325326,93.6354656 263.830659,93.6354656 C264.694659,93.6354656 265.371993,93.8407989 265.866659,94.2501323 C266.357326,94.6554656 266.731993,95.1821322 266.991993,95.8221322 C267.251993,96.4634655 267.423993,97.2234655 267.513326,98.0981322 C267.601326,98.9741321 267.642659,99.8487988 267.642659,100.723465 C267.642659,101.947465 267.557326,102.968799 267.382659,103.786132 C267.205326,104.603465 266.898659,105.302132 266.461326,105.884799 C266.023993,106.468799 265.421326,106.979465 264.663993,107.416799 C263.903993,107.854132 262.969326,108.307465 261.859993,108.772799 C258.877326,109.999465 256.481326,111.270132 254.669326,112.578132 C252.859993,113.890132 251.471993,115.294132 250.507993,116.780798 C249.543993,118.267465 248.91466,119.843465 248.62266,121.504798 C248.33066,123.166132 248.185326,124.988798 248.185326,126.974131 C248.185326,129.482131 248.475993,131.802131 249.059993,133.931465 C249.64266,136.059465 250.565326,137.882131 251.819993,139.400798 C253.07866,140.916798 254.715993,142.111464 256.731993,142.986131 C258.747993,143.862131 261.185326,144.302131 264.049326,144.302131 C267.087993,144.302131 269.601326,143.818131 271.587993,142.854131 C273.575993,141.890131 275.137326,140.660798 276.278659,139.171464 C277.415992,137.682131 278.221326,136.031465 278.687992,134.220798 C279.153326,132.406131 279.387992,130.655465 279.387992,128.960798 L267.642659,126.419465 C267.642659,127.296798 267.601326,128.114131 267.513326,128.875465 C267.423993,129.632798 267.237326,130.318131 266.950659,130.931465 C266.663993,131.546131 266.273326,132.028798 265.778659,132.379465 C265.289326,132.728798 264.611993,132.906131 263.745326,132.906131 C262.934659,132.906131 262.299993,132.712798 261.838659,132.335465 C261.374659,131.952798 261.013326,131.486131 260.754659,130.931465 C260.49466,130.375465 260.319993,129.750131 260.237326,129.046131 C260.147993,128.348798 260.10666,127.674131 260.10666,127.034131 C260.10666,126.212798 260.163993,125.484798 260.27866,124.840798 C260.39866,124.198132 260.685326,123.583465 261.153326,122.999465 C261.617326,122.416798 262.299993,121.846132 263.199993,121.291465 C264.101326,120.734132 265.369326,120.135465 266.997326,119.494132 C269.789326,118.382132 272.002659,117.212798 273.630659,115.988798 C275.257326,114.760798 276.494659,113.416798 277.338659,111.955465 C278.182659,110.494132 278.734659,108.843465 278.997326,107.004799 C279.257326,105.163465 279.387992,103.072799 279.387992,100.736799" id="path58" transform="translate(263.567993, 113.270798) scale(-1, 1) rotate(-180.000000) translate(-263.567993, -113.270798) "></path>
            <polygon id="path62" transform="translate(298.278925, 113.272132) scale(-1, 1) rotate(-180.000000) translate(-298.278925, -113.272132) " points="284.296926 82.7681326 284.296926 143.776131 312.260925 143.776131 312.260925 132.382798 296.218259 132.382798 296.218259 119.408132 310.242258 119.408132 310.242258 108.013465 296.218259 108.013465 296.218259 94.1641323 312.260925 94.1641323 312.260925 82.7681326"></polygon>
            <polygon id="path66" transform="translate(337.679591, 113.272265) scale(-1, 1) rotate(-180.000000) translate(-337.679591, -113.272265) " points="333.796924 94.6902656 331.263591 102.492932 328.474258 111.518265 328.034258 111.518265 328.034258 82.7689326 316.116925 82.7689326 316.116925 143.775598 327.247591 143.775598 333.294258 127.471598 337.414258 115.378265 337.939591 115.378265 342.148924 127.736931 348.106257 143.775598 359.242257 143.775598 359.242257 82.7689326 347.320924 82.7689326 347.320924 111.258265 346.968924 111.258265 344.091591 101.788932 341.736924 94.6902656"></polygon>
            <path d="M384.658923,102.541332 C384.658923,105.007999 384.234923,106.741332 383.388256,107.741332 C382.538923,108.741332 381.268256,109.241332 379.574923,109.241332 L377.382923,109.241332 L377.382923,94.1639989 L379.486923,94.1639989 C380.596257,94.1639989 381.48959,94.3853323 382.16159,94.8253323 C382.830923,95.2679989 383.356256,95.8693322 383.738923,96.6319989 C384.11759,97.3986655 384.366923,98.2786655 384.484256,99.2786655 C384.60159,100.278665 384.658923,101.363999 384.658923,102.541332 L384.658923,102.541332 Z M384.132256,126.421331 C384.132256,128.817331 383.694923,130.407998 382.820256,131.199998 C381.942923,131.986665 380.538923,132.382665 378.612257,132.382665 L377.382923,132.382665 L377.382923,120.283998 L378.872257,120.283998 C382.382923,120.283998 384.132256,122.330665 384.132256,126.421331 L384.132256,126.421331 Z M388.866923,114.674665 C390.268256,114.205332 391.424256,113.535998 392.330923,112.658665 C393.23759,111.783998 393.96559,110.775999 394.518923,109.637332 C395.074923,108.497332 395.468256,107.254665 395.705589,105.907999 C395.934923,104.565332 396.054923,103.191999 396.054923,101.789332 C396.054923,95.2439989 394.622923,90.439999 391.75759,87.3719991 C388.896256,84.3039992 384.628256,82.7679992 378.96159,82.7679992 L365.46159,82.7679992 L365.46159,143.775998 L379.226923,143.775998 C384.658923,143.775998 388.734923,142.343998 391.450923,139.481331 C394.169589,136.617331 395.528256,132.382665 395.528256,126.773331 C395.528256,125.543998 395.398923,124.330665 395.132256,123.131998 C394.872256,121.934665 394.476256,120.811998 393.950923,119.759998 C393.424256,118.705332 392.73759,117.773332 391.890923,116.955998 C391.044256,116.134665 390.03359,115.522665 388.866923,115.114665 L388.866923,114.674665 Z" id="path70" transform="translate(380.758256, 113.271998) scale(-1, 1) rotate(-180.000000) translate(-380.758256, -113.271998) "></path>
            <polygon id="path74" transform="translate(416.347856, 113.272132) scale(-1, 1) rotate(-180.000000) translate(-416.347856, -113.272132) " points="402.367189 82.7681326 402.367189 143.776131 414.287189 143.776131 414.287189 94.1641323 430.328522 94.1641323 430.328522 82.7681326"></polygon>
            <polygon id="path78" transform="translate(442.554922, 113.272665) scale(-1, 1) rotate(-180.000000) translate(-442.554922, -113.272665) " points="442.992255 121.513998 445.164255 131.768665 447.776255 143.776664 460.393588 143.776664 448.560255 107.576665 448.560255 82.7686659 436.637588 82.7686659 436.637588 107.576665 424.716255 143.776664 437.418922 143.776664 440.380255 131.595331 442.554922 121.513998"></polygon>
            <path d="M94.749997,90.0261324 C91.0366637,90.0261324 88.0339971,86.9847991 88.0339971,83.2207992 C88.0339971,79.4581326 91.0366637,76.4167994 94.749997,76.4167994 C98.4526636,76.4167994 101.47133,79.4581326 101.47133,83.2207992 C101.47133,86.9847991 98.4526636,90.0261324 94.749997,90.0261324" id="path82" transform="translate(94.752664, 83.221466) scale(-1, 1) rotate(-180.000000) translate(-94.752664, -83.221466) "></path>
            <path d="M101.18493,32.4889338 L98.4249302,54.1635999 L91.1022637,54.1635999 L88.3435971,32.4889338 L75.5049308,32.4889338 L87.2889305,121.683598 L102.078263,121.683598 L113.92493,32.4889338 L101.18493,32.4889338 Z M72.6089309,92.2462657 L60.4795978,92.2462657 L60.4795978,105.720932 C60.4795978,106.142265 60.4169312,106.627599 60.3049312,107.210265 C60.1955978,107.783599 59.9942645,108.303599 59.6982645,108.788932 C59.4115979,109.267599 59.0129312,109.676932 58.5049312,110.007599 C58.0209312,110.335599 57.3649312,110.502265 56.5542646,110.502265 C56.4942646,110.502265 56.4449313,110.496932 56.3822646,110.483599 L56.3822646,110.502265 C55.559598,110.502265 54.9169313,110.335599 54.4222647,110.007599 C53.9249313,109.676932 53.5262647,109.267599 53.239598,108.788932 C52.955598,108.303599 52.7422647,107.783599 52.6329314,107.210265 C52.507598,106.627599 52.4582647,106.142265 52.4582647,105.720932 L52.4582647,47.2782668 C52.4582647,46.4396001 52.6569314,45.6222668 53.0649314,44.8382668 C53.463598,44.0542669 54.431598,43.6636002 55.9342646,43.6636002 C57.1049313,43.6636002 58.0569312,43.9862669 58.8049312,44.6169335 C59.5595979,45.2409335 59.9315979,46.0796001 59.9315979,47.0849334 L59.9315979,63.9755997 L57.2635979,63.9755997 L57.2635979,74.7102661 L72.0649309,74.7102661 L72.0649309,47.7316001 C72.0649309,42.5542669 70.7009309,38.6369337 67.968931,35.9609337 C65.2369311,33.2782671 61.3729311,31.9342672 56.3822646,31.9342672 C50.7835981,31.9342672 46.7209315,33.2649338 44.1635982,35.9102671 C41.6195983,38.562267 40.326265,42.5276002 40.326265,47.8196001 L40.326265,105.720932 C40.326265,110.712932 41.718265,114.710265 44.4875982,117.715598 C47.2422648,120.734265 51.2422647,122.235598 56.4662646,122.235598 C61.6955978,122.235598 65.6955977,120.734265 68.4502643,117.715598 C71.2182642,114.710265 72.6089309,110.712932 72.6089309,105.720932 L72.6089309,92.2462657 Z M144.171596,77.0849327 C144.171596,82.1889326 148.320929,86.3249325 153.424929,86.3249325 L151.140929,97.7355988 C146.435596,95.7889322 141.020929,98.0222655 139.070263,102.740932 C137.122263,107.455599 139.356929,112.866265 144.072929,114.816932 L137.604929,124.496932 C134.002263,120.882265 128.143596,120.882265 124.539596,124.496932 C120.930263,128.103598 120.930263,133.960931 124.539596,137.564931 L114.85693,144.027598 C112.906263,139.314264 107.49293,137.074265 102.786263,139.022264 C98.0649302,140.980931 95.8302636,146.395598 97.7809302,151.100931 L86.3702639,153.379597 C86.3702639,148.278264 82.2369306,144.127598 77.1329308,144.127598 C72.0262642,144.127598 67.8795977,148.278264 67.8795977,153.379597 L56.4662646,151.100931 C58.4195979,146.387598 56.1822646,140.980931 51.4662647,139.030264 C46.7582648,137.074265 41.346265,139.314264 39.3955984,144.027598 L29.7089319,137.559598 C33.3235985,133.960931 33.3235985,128.103598 29.7089319,124.496932 C26.1062654,120.882265 20.2475988,120.882265 16.6462656,124.496932 L10.1769324,114.816932 C14.895599,112.866265 17.1435989,107.455599 15.1822656,102.746265 C13.231599,98.0222655 7.81826582,95.7889322 3.11159927,97.7355988 L0.838265996,86.3249325 C5.94226587,86.3249325 10.0755991,82.1889326 10.0755991,77.0849327 C10.0755991,71.9835995 5.94226587,67.8409329 0.838265996,67.8409329 L3.11159927,56.4235999 C7.81826582,58.3715998 13.231599,56.1369332 15.1822656,51.4182667 C17.1435989,46.7129335 14.895599,41.2982669 10.1769324,39.3436003 L16.6462656,29.6689339 C20.2609322,33.2836005 26.1062654,33.2836005 29.7089319,29.6689339 C33.3235985,26.064934 33.3235985,20.2076008 29.7089319,16.6009342 L39.3955984,10.1369344 C41.346265,14.8556009 46.7582648,17.0982675 51.4662647,15.1369342 C56.1822646,13.1862676 58.4195979,7.77293443 56.4662646,3.06760121 L67.8795977,0.794267937 C67.8795977,5.89826781 72.0262642,10.0329344 77.1329308,10.0329344 C82.2369306,10.0329344 86.3702639,5.89826781 86.3702639,0.794267937 L97.7809302,3.06760121 C95.8302636,7.77826776 98.0649302,13.1862676 102.786263,15.1369342 C107.49293,17.0982675 112.906263,14.8502676 114.85693,10.1369344 L124.539596,16.6009342 C120.930263,20.2076008 120.930263,26.064934 124.539596,29.6689339 C128.143596,33.2782671 134.002263,33.2782671 137.604929,29.6636005 L144.072929,39.350267 C139.356929,41.2982669 137.106263,46.7129335 139.070263,51.4182667 C141.020929,56.1369332 146.435596,58.3795998 151.151596,56.4235999 L153.424929,67.8409329 C148.320929,67.8409329 144.171596,71.9835995 144.171596,77.0849327 L144.171596,77.0849327 Z" id="path86" transform="translate(77.131597, 77.086933) scale(-1, 1) rotate(-180.000000) translate(-77.131597, -77.086933) "></path>
        </g>
    </g>
</svg>